<svg width="15" height="15" viewBox="0 0 15 15" fill="none" xmlns="http://www.w3.org/2000/svg">
<path d="M4 8C5.57031 7.69531 4 8.76562 4 7.5C4 6.07031 9.60938 8.03906 7.5 7.5C6.1875 7.17188 4.04177 5.94141 6.5 4.5C6.5 4.14844 6.19531 5.23438 6.5 5C6.82812 4.76562 6.99609 4.07812 7.55859 4.07812C8.61328 4.07812 8.92969 3.0625 8.97656 4L7.5 3.47656C7.45312 2.14062 9.92578 4.10486 8.54297 3.7533L8.5 6L8 5.5L7.48828 5.30859C6.80859 5.44922 7.98828 5.80859 6.5 5C6.07812 5.39844 6.5 3.86719 6.5 4.5C6.5 5.8125 5.41406 6.98438 7.5 7.5C8.83594 7.80469 4 6.72656 4 7.5C4 7.80469 8.78125 11.7188 8.5 11.9766C8.24219 12.2109 7.19531 12.0234 6.53906 12.0234C5.29688 12.0234 4.09375 10.4141 4 9.47656L7.55859 8.97656C7.62891 10.3125 4.96875 11.6719 6.53906 12.0234V11.9258L8.5 11.9766L4 8ZM2.17969 2.21484C3.65625 0.738281 5.42578 0 7.48828 0C9.55078 0 11.3086 0.738281 12.7617 2.21484C14.2383 3.66797 14.9766 5.42578 14.9766 7.48828C14.9766 9.55078 14.2383 11.3203 12.7617 12.7969C11.3086 14.25 9.55078 14.9766 7.48828 14.9766C5.42578 14.9766 3.65625 14.25 2.17969 12.7969C0.726562 11.3203 0 9.55078 0 7.48828C0 5.42578 0.726562 3.66797 2.17969 2.21484Z" fill="#3D5170"/>
<path d="M5.1649 4.5742H10.1313V5.3308H5.1649V4.5742ZM8.0846 11.5H7.2116V6.844H5.1649V6.0874H10.1313V6.844H8.0846V11.5Z" fill="white"/>
</svg>
