<svg width="123" height="44" viewBox="0 0 123 44" fill="none" xmlns="http://www.w3.org/2000/svg"><path d="M45.724 27.072c-.876 0-1.662-.216-2.358-.648a4.829 4.829 0 01-1.656-1.782c-.396-.756-.594-1.608-.594-2.556s.216-1.8.648-2.556a4.88 4.88 0 011.782-1.782c.756-.444 1.602-.666 2.538-.666.936 0 1.776.222 2.52.666a4.745 4.745 0 011.764 1.782c.444.756.666 1.608.666 2.556h-.702c0 .948-.204 1.8-.612 2.556a4.686 4.686 0 01-1.638 1.782c-.696.432-1.482.648-2.358.648zm.36-1.62c.612 0 1.158-.144 1.638-.432.48-.3.858-.702 1.134-1.206a3.605 3.605 0 00.414-1.728c0-.648-.138-1.224-.414-1.728a3.054 3.054 0 00-1.134-1.206c-.48-.3-1.026-.45-1.638-.45-.6 0-1.146.15-1.638.45-.48.288-.864.69-1.152 1.206-.276.504-.414 1.08-.414 1.728 0 .636.138 1.212.414 1.728.288.504.672.906 1.152 1.206a3.183 3.183 0 001.638.432zm4.032 1.566a.94.94 0 01-.666-.252.94.94 0 01-.252-.666v-2.754l.342-1.908 1.494.648V26.1c0 .264-.09.486-.27.666a.877.877 0 01-.648.252zM54.864 27a.94.94 0 01-.665-.252.94.94 0 01-.252-.666v-8.01c0-.276.084-.498.252-.666a.94.94 0 01.666-.252c.276 0 .497.084.666.252.168.168.252.39.252.666v8.01a.94.94 0 01-.252.666c-.169.168-.39.252-.666.252zm0-11.448c-.323 0-.605-.114-.845-.342a1.188 1.188 0 01-.343-.846c0-.324.114-.6.343-.828.24-.24.522-.36.846-.36.323 0 .6.12.828.36.24.228.36.504.36.828 0 .324-.12.606-.36.846a1.128 1.128 0 01-.828.342zm9.284 11.52c-.936 0-1.776-.216-2.52-.648a4.881 4.881 0 01-1.764-1.8c-.432-.756-.654-1.608-.666-2.556V13.86c0-.276.084-.498.252-.666a.94.94 0 01.666-.252c.276 0 .498.084.666.252.168.168.252.39.252.666v4.86c.42-.504.924-.9 1.512-1.188.6-.3 1.254-.45 1.962-.45.876 0 1.662.222 2.358.666a4.519 4.519 0 011.638 1.782c.408.744.612 1.59.612 2.538 0 .948-.222 1.8-.666 2.556a4.881 4.881 0 01-1.764 1.8c-.744.432-1.59.648-2.538.648zm0-1.62c.612 0 1.158-.144 1.638-.432.48-.3.858-.708 1.134-1.224a3.485 3.485 0 00.432-1.728c0-.648-.144-1.224-.432-1.728a3.086 3.086 0 00-1.134-1.188c-.48-.3-1.026-.45-1.638-.45-.6 0-1.146.15-1.638.45-.48.288-.858.684-1.134 1.188-.276.504-.414 1.08-.414 1.728 0 .636.138 1.212.414 1.728.276.516.654.924 1.134 1.224a3.183 3.183 0 001.638.432zm12.17 1.62c-.972 0-1.83-.21-2.574-.63a4.784 4.784 0 01-1.764-1.764c-.42-.756-.63-1.62-.63-2.592 0-.984.21-1.848.63-2.592a4.613 4.613 0 011.764-1.764c.744-.432 1.602-.648 2.574-.648.96 0 1.812.216 2.556.648a4.488 4.488 0 011.746 1.764c.432.744.648 1.608.648 2.592 0 .972-.21 1.836-.63 2.592a4.65 4.65 0 01-1.746 1.764c-.744.42-1.602.63-2.574.63zm0-1.62c.624 0 1.176-.144 1.656-.432.48-.288.852-.684 1.116-1.188.276-.504.414-1.086.414-1.746 0-.66-.138-1.242-.414-1.746a2.93 2.93 0 00-1.116-1.206c-.48-.288-1.032-.432-1.656-.432-.624 0-1.176.144-1.656.432-.48.288-.858.69-1.134 1.206-.276.504-.414 1.086-.414 1.746 0 .66.138 1.242.414 1.746.276.504.654.9 1.134 1.188.48.288 1.032.432 1.656.432zm20.607 1.566a.94.94 0 01-.666-.252.94.94 0 01-.252-.666v-5.148c0-.756-.186-1.314-.558-1.674-.372-.372-.858-.558-1.458-.558-.624 0-1.14.216-1.548.648-.396.432-.594.984-.594 1.656h-1.494c0-.78.168-1.464.504-2.052a3.59 3.59 0 011.404-1.404c.612-.336 1.308-.504 2.088-.504.684 0 1.29.15 1.818.45.528.3.936.744 1.224 1.332.3.576.45 1.278.45 2.106V26.1a.94.94 0 01-.252.666c-.168.168-.39.252-.666.252zm-12.006 0a.94.94 0 01-.666-.252A.94.94 0 0184 26.1v-8.01c0-.276.084-.498.252-.666a.94.94 0 01.666-.252c.276 0 .498.084.666.252.168.168.252.39.252.666v8.01a.94.94 0 01-.252.666c-.168.168-.39.252-.666.252zm6.012 0a.94.94 0 01-.666-.252.94.94 0 01-.252-.666v-5.148c0-.756-.186-1.314-.558-1.674-.372-.372-.858-.558-1.458-.558-.624 0-1.14.216-1.548.648-.408.432-.612.984-.612 1.656h-1.134c0-.78.156-1.464.468-2.052a3.49 3.49 0 011.296-1.404c.552-.336 1.182-.504 1.89-.504.684 0 1.29.15 1.818.45.528.3.936.744 1.224 1.332.3.576.45 1.278.45 2.106V26.1a.94.94 0 01-.252.666c-.168.168-.39.252-.666.252zm14.588.054c-.996 0-1.884-.21-2.664-.63a4.842 4.842 0 01-1.818-1.764c-.432-.756-.648-1.62-.648-2.592 0-.984.204-1.848.612-2.592a4.524 4.524 0 011.728-1.764c.732-.432 1.572-.648 2.52-.648.936 0 1.74.21 2.412.63a3.922 3.922 0 011.53 1.71c.36.72.54 1.554.54 2.502 0 .228-.078.42-.234.576a.842.842 0 01-.594.216h-7.254v-1.44h7.2l-.738.504c-.012-.6-.132-1.134-.36-1.602a2.721 2.721 0 00-.972-1.134c-.42-.276-.93-.414-1.53-.414-.684 0-1.272.15-1.764.45-.48.3-.846.714-1.098 1.242-.252.516-.378 1.104-.378 1.764 0 .66.15 1.248.45 1.764.3.516.714.924 1.242 1.224.528.3 1.134.45 1.818.45.372 0 .75-.066 1.134-.198.396-.144.714-.306.954-.486a.957.957 0 01.576-.198.766.766 0 01.558.18c.204.18.312.378.324.594.012.216-.084.402-.288.558-.408.324-.918.588-1.53.792-.6.204-1.176.306-1.728.306zm10.667 0c-.936 0-1.782-.216-2.538-.648a5.023 5.023 0 01-1.782-1.8c-.432-.756-.648-1.608-.648-2.556s.198-1.794.594-2.538c.408-.756.96-1.35 1.656-1.782.696-.444 1.482-.666 2.358-.666.708 0 1.362.15 1.962.45.6.288 1.104.684 1.512 1.188v-4.86c0-.276.084-.498.252-.666a.94.94 0 01.666-.252c.276 0 .498.084.666.252.168.168.252.39.252.666v8.208c0 .948-.222 1.8-.666 2.556a4.881 4.881 0 01-1.764 1.8c-.744.432-1.584.648-2.52.648zm0-1.62c.612 0 1.158-.144 1.638-.432.48-.3.858-.708 1.134-1.224a3.605 3.605 0 00.414-1.728c0-.648-.138-1.224-.414-1.728a3.086 3.086 0 00-1.134-1.188c-.48-.3-1.026-.45-1.638-.45-.6 0-1.146.15-1.638.45-.48.288-.864.684-1.152 1.188-.276.504-.414 1.08-.414 1.728 0 .636.138 1.212.414 1.728.288.516.672.924 1.152 1.224a3.183 3.183 0 001.638.432z" fill="#4C5560"/><circle cx="17.552" cy="22.14" r="16.041" transform="rotate(88.362 17.552 22.14)" fill="url(#paint0_linear)"/><path d="M24.107 26.219H11.049a3.665 3.665 0 013.661-3.5h5.672a3.731 3.731 0 013.725 3.5zM7.14 9.41a7.5 7.5 0 016.749-4.228h7.428a7.5 7.5 0 016.595 3.927l1.25 2.306c2.707 4.998-.912 11.073-6.595 11.073H12.77c-5.536 0-9.164-5.792-6.749-10.772l1.119-2.307z" fill="#fff" stroke="#4C5560"/><path d="M20.816 17.881c0 .947-1.391 1.837-3.183 1.837-1.792 0-3.245-.767-3.245-1.714.428-1.164 1.391.734 3.184.734 1.792 0 2.755-1.714 3.244-.857z" fill="#4C5560"/><circle cx="17.572" cy="1.959" r="1.459" stroke="#4C5560"/><path stroke="#4C5560" stroke-width=".529" d="M17.382 3.618h.529V5.03h-.529z"/><path d="M7.897 12.664a3.031 3.031 0 011.565-2.43l.456-.25a7.406 7.406 0 013.086-.674h9.459a7.33 7.33 0 012.617.483l.475.182c.228.087.444.2.645.339 2.487 1.712 1.276 5.608-1.743 5.608H10.92a3.031 3.031 0 01-3.023-3.258z" fill="#4C5560"/><circle cx="13.531" cy="12.616" r="1.704" stroke="#61F5E4"/><circle cx="21.49" cy="12.669" r="1.704" stroke="#61F5E4"/><circle cx="13.129" cy="12.145" r=".332" fill="#fff"/><circle cx="21.848" cy="12.145" r=".332" fill="#fff"/><path d="M3.881 30.288a3.5 3.5 0 013.487-3.807h20.407a3.5 3.5 0 013.49 3.758l-.694 9.388a3.5 3.5 0 01-3.49 3.242H8.194a3.5 3.5 0 01-3.486-3.193l-.827-9.388z" fill="#fff" stroke="#4C5560"/><rect x="12.375" y="32.269" width="7.699" height="4.962" rx="2.481" fill="#61F5E4"/><rect x="15.113" y="32.269" width="7.699" height="4.962" rx="2.481" fill="#F36"/><rect x="15.113" y="39.968" width="7.699" height="4.962" rx="2.481" transform="rotate(-90 15.113 39.968)" fill="#F36"/><rect x="15.113" y="37.231" width="7.699" height="4.962" rx="2.481" transform="rotate(-90 15.113 37.23)" fill="#61F5E4"/><rect x="13.891" y="33.98" width="7.382" height="1.54" rx=".77" fill="#fff"/><rect x="16.824" y="38.453" width="7.382" height="1.54" rx=".77" transform="rotate(-90 16.824 38.453)" fill="#fff"/><rect x="15.506" y="32.663" width="4.175" height="4.175" rx="2.087" fill="#fff"/><path d="M15.113 32.27h1.71v.855a.856.856 0 01-.855.855h-.854-.001v-1.71z" fill="#61F5E4"/><path d="M20.074 32.27v1.71h-.855a.855.855 0 01-.855-.855v-.855h1.71z" fill="url(#paint1_linear)"/><path d="M15.113 37.23v-1.71h.855c.473 0 .856.383.856.855v.855H15.113z" fill="url(#paint2_linear)"/><path d="M20.074 37.23v-1.71h-.855a.856.856 0 00-.855.855v.855h1.71z" fill="#F36"/><defs><linearGradient id="paint0_linear" x1="17.86" y1="11.369" x2="17.474" y2="39.907" gradientUnits="userSpaceOnUse"><stop stop-color="#F36"/><stop offset="1" stop-color="#61F5E4"/></linearGradient><linearGradient id="paint1_linear" x1="21.272" y1="35.117" x2="17.068" y2="31.072" gradientUnits="userSpaceOnUse"><stop stop-color="#F36"/><stop offset="1" stop-color="#61F5E4"/></linearGradient><linearGradient id="paint2_linear" x1="13.89" y1="34.175" x2="17.96" y2="38.428" gradientUnits="userSpaceOnUse"><stop stop-color="#61F5E4"/><stop offset="1" stop-color="#F36"/></linearGradient></defs></svg>